<?xml version="1.0" encoding="UTF-8" standalone="no"?>
<!-- Created with Inkscape (http://www.inkscape.org/) -->

<svg
   width="160mm"
   height="165mm"
   viewBox="0 0 160 165"
   version="1.1"
   id="svg5"
   inkscape:version="1.1.2 (0a00cf5339, 2022-02-04)"
   sodipodi:docname="IKnow_logo.svg"
   xmlns:inkscape="http://www.inkscape.org/namespaces/inkscape"
   xmlns:sodipodi="http://sodipodi.sourceforge.net/DTD/sodipodi-0.dtd"
   xmlns="http://www.w3.org/2000/svg"
   xmlns:svg="http://www.w3.org/2000/svg">
  <sodipodi:namedview
     id="namedview7"
     pagecolor="#ffffff"
     bordercolor="#666666"
     borderopacity="1.0"
     inkscape:pageshadow="2"
     inkscape:pageopacity="0.0"
     inkscape:pagecheckerboard="0"
     inkscape:document-units="mm"
     showgrid="false"
     inkscape:zoom="0.336297"
     inkscape:cx="-344.9332"
     inkscape:cy="624.44804"
     inkscape:window-width="1920"
     inkscape:window-height="927"
     inkscape:window-x="0"
     inkscape:window-y="32"
     inkscape:window-maximized="1"
     inkscape:current-layer="layer2" />
  <defs
     id="defs2" />
  <g
     inkscape:label="bulb"
     inkscape:groupmode="layer"
     id="g2045"
     style="display:inline">
    <g
       style="fill:none"
       id="g2043"
       transform="matrix(10.587729,0,0,10.587729,0.57122743,0.40578876)">
      <path
         d="m 5.9738196,14.607295 h 3.8377701 l 0.052361,-0.476394 H 5.921459 Z M 7,0 7.0785409,2 H 7.9214591 L 8,0 Z M 0,8 2,7.9214591 V 7.0785409 L 0,7 Z M 13,7.9214591 15,8 V 7 L 13,7.078541 Z M 3.2750091,3.7249909 1.85355,2.14645 1.14645,2.85355 2.7249909,4.2750091 Z M 12.275059,4.2750091 13.8536,2.85355 13.1464,2.14645 11.724941,3.7249909 Z M 6.1647203,15.545086 H 9.6359662 L 9.7668678,14.88543 H 6.0338188 Z M 5.9440285,13.82315 H 9.88652 v -0.685835 l -3.9424915,0.549787 z"
         fill="#6a11cb"
         id="path2041"
         sodipodi:nodetypes="cccccccccccccccccccccccccccccccccccccccc" />
    </g>
  </g>
  <g
     inkscape:groupmode="layer"
     id="layer2"
     inkscape:label="head"
     style="display:inline">
    <g
       style="fill:#6a11cb"
       id="g841"
       transform="matrix(0.22894077,0,0,0.22894077,19.910356,32.728912)">
      <g
         id="g830">
        <g
           id="g828">
          <path
             d="m 262.198,0 c -28.1,0 -55.1,6.1 -80.3,18 -32,14.9 -59.1,38.4 -78.4,68 -19.9,30.5 -30.4,65.8 -30.4,102.3 V 214 l -34,65 c -6.5,12.5 -6.8,25.3 -0.8,35.3 6,10 17.5,15.7 31.6,15.7 h 3.2 v 51.1 c 0,27.7 22.5,50.2 50.2,50.2 0.7,0 1.3,0 2,-0.1 l 34.9,-5.2 v 35.1 c 0,0.5 0,1.1 0.1,1.6 1,12.4 11,21.6 23.7,21.6 v 0 c 1.5,0 3,-0.1 4.6,-0.4 l 181.5,-32.2 c 13.2,-2.3 23.6,-14.7 23.6,-28.1 v -101 c 36.1,-35.3 56.6,-84 56.6,-134.5 C 450.298,84.4 365.898,0 262.198,0 Z m 108.8,306.8 c -2.8,2.6 -4.4,6.2 -4.4,9.9 v 106.7 c -0.1,0.5 -0.8,1.4 -1.3,1.6 l -178.2,31.5 -0.1,-46.5 c 0,-3.9 -1.7,-7.7 -4.7,-10.2 -2.5,-2.1 -5.6,-3.3 -8.8,-3.3 -0.7,0 -1.3,0 -2,0.1 l -49.3,7.3 c -12.4,-0.5 -22.3,-10.7 -22.3,-23.2 v -64.6 c 0,-7.5 -6,-13.5 -13.5,-13.5 h -16.5 c -5.1,0 -7.8,-1.4 -8.5,-2.6 -0.7,-1.2 -0.8,-4.3 1.6,-8.8 l 35.6,-67.9 c 1,-1.9 1.5,-4.1 1.5,-6.3 v -29 c 0,-62.4 36.6,-119.6 93.2,-145.9 h 0.1 c 21.5,-10 44.7,-15.1 68.8,-15.1 88.8,0 161.1,72.3 161.1,161.1 0,45 -19.1,88.3 -52.3,118.7 z"
             id="path824" />
        </g>
      </g>
    </g>
  </g>
</svg>
